# xmcd
#
# Track frame offsets:
#	150
#	13395
#	28395
#	42027
#	53232
#	65395
#	76577
#	89927
#	101747
#	111027
#	124130
#	139032
#	150112
#	164282
#
# Disc length: 2409 seconds
#
# Revision: 0
# Processed by: cddbd v1.5.1PL2 Copyright (c) Steve Scherf et al.
# Submitted via: EasyCDDAExtractor 9.0.0.1
#
DISCID=b409670e
DTITLE=Various Artist - Country Ladies CD3
DYEAR=1900
DGENRE=Country
TTITLE0=Lynn Anderson - (I Never Promised You A) Rose Garden
TTITLE1=Jeannie C. Riley - Harper Valley P.T.A.
TTITLE2=Kitty Wells - Making Believe
TTITLE3=Wanda Jackson - In The Middle Of A Heartache
TTITLE4=Loretta Lynn (live) - Me And Bobby McGee
TTITLE5=Anne Murray - The Last Thing On My Mind
TTITLE6=Billie Jo Spears - Fever
TTITLE7=Dolly Parton - Letter To Heaven
TTITLE8=Norma Jean - I Wouldn't By A Used Car From Him
TTITLE9=Patsy Cline - Life's Tailway To Heaven
TTITLE10=Marie O'Brien - He Stopped Loving Her Today
TTITLE11=Donna Fargo - Al That's Keeping Me Alive
TTITLE12=Melba Montgomery - Don't Let The God Times Fool You
TTITLE13=Tammy Wynette (live) - Medley
EXTD=
EXTT0=
EXTT1=
EXTT2=
EXTT3=
EXTT4=
EXTT5=
EXTT6=
EXTT7=
EXTT8=
EXTT9=
EXTT10=
EXTT11=
EXTT12=
EXTT13=
PLAYORDER=
